<svg width="1042" height="202" viewBox="0 0 1042 202" fill="none" xmlns="http://www.w3.org/2000/svg">
<path d="M20.4823 2C20.4823 2 -33.1695 86.2105 37.5951 116.737C108.36 147.263 696.33 51.4737 888.851 69.3684C1081.37 87.2632 1036.45 198.842 1036.45 198.842V202" stroke="black" stroke-width="2"/>
<path d="M20.3693 1.63495C20.1661 1.11895 19.5865 0.864053 19.0748 1.06562L10.7362 4.35038C10.2245 4.55194 9.97442 5.13365 10.1777 5.64965C10.3809 6.16565 10.9605 6.42054 11.4722 6.21897L18.8843 3.29919L21.8287 10.7736C22.0319 11.2896 22.6115 11.5445 23.1232 11.3429C23.6349 11.1413 23.8849 10.5596 23.6817 10.0436L20.3693 1.63495ZM9.95164 26.613L20.3582 2.4025L18.5274 1.59735L8.12087 25.8079L9.95164 26.613Z" fill="black"/>
</svg>
