<svg width="802" height="202" viewBox="0 0 802 202" fill="none" xmlns="http://www.w3.org/2000/svg">
<path d="M15.9864 2C15.9864 2 -25.2842 86.2105 29.1501 116.737C83.5844 147.263 535.869 51.4737 683.963 69.3684C832.056 87.2632 797.502 198.842 797.502 198.842V202" stroke="black" stroke-width="2"/>
<path d="M16.0227 1.67952C15.8062 1.11491 15.2565 0.800651 14.7949 0.977604L7.27233 3.86122C6.81071 4.03817 6.61194 4.63933 6.82837 5.20394C7.0448 5.76855 7.59447 6.08281 8.0561 5.90585L14.7428 3.34264L17.8779 11.5212C18.0943 12.0858 18.644 12.4001 19.1056 12.2231C19.5673 12.0462 19.766 11.445 19.5496 10.8804L16.0227 1.67952ZM8.0499 26.7068L16.0549 2.49625L14.3187 1.50359L6.31363 25.7141L8.0499 26.7068Z" fill="black"/>
</svg>
