<svg width="952" height="202" viewBox="0 0 952 202" fill="none" xmlns="http://www.w3.org/2000/svg">
<path d="M18.7963 2C18.7963 2 -30.2125 86.2105 34.4282 116.737C99.069 147.263 636.157 51.4737 812.018 69.3684C987.879 87.2632 946.846 198.842 946.846 198.842V202" stroke="black" stroke-width="2"/>
<path d="M18.7424 1.64847C18.5332 1.11556 17.9627 0.840894 17.4681 1.035L9.40824 4.19806C8.91365 4.39216 8.68224 4.98153 8.89138 5.51444C9.10052 6.04736 9.67101 6.32202 10.1656 6.12792L17.3299 3.3163L20.3594 11.0357C20.5685 11.5686 21.139 11.8433 21.6336 11.6492C22.1282 11.4551 22.3596 10.8657 22.1505 10.3328L18.7424 1.64847ZM9.24183 26.6442L18.7478 2.43372L16.9458 1.56613L7.43981 25.7767L9.24183 26.6442Z" fill="black"/>
</svg>
